<svg width="18" height="18" viewBox="0 0 18 18" fill="none" xmlns="http://www.w3.org/2000/svg">
<g clip-path="url(#clip0_230_4)">
<path d="M8.04808 1.42707C8.34744 0.505755 9.65084 0.505757 9.9502 1.42707L11.2442 5.40985C11.3781 5.82187 11.7621 6.10083 12.1953 6.10083H16.383C17.3518 6.10083 17.7545 7.34045 16.9708 7.90985L13.5829 10.3713C13.2324 10.626 13.0857 11.0773 13.2196 11.4894L14.5137 15.4721C14.813 16.3934 13.7586 17.1596 12.9748 16.5902L9.58692 14.1287C9.23644 13.874 8.76184 13.874 8.41135 14.1287L5.0234 16.5902C4.23968 17.1596 3.18521 16.3934 3.48456 15.4721L4.77864 11.4894C4.91252 11.0773 4.76586 10.626 4.41537 10.3713L1.02741 7.90985C0.2437 7.34045 0.646477 6.10083 1.6152 6.10083H5.80294C6.23617 6.10083 6.62013 5.82187 6.754 5.40985L8.04808 1.42707Z" fill="#DBEAFE"/>
</g>
<defs>
<clipPath id="clip0_230_4">
<rect width="18" height="17" fill="white" transform="translate(0 0.5)"/>
</clipPath>
</defs>
</svg>
