<svg width="44" height="44" viewBox="0 0 44 44" fill="none" xmlns="http://www.w3.org/2000/svg">
<g clip-path="url(#clip0_239_39)">
<path d="M40 0H4C1.79086 0 0 1.79086 0 4V40C0 42.2091 1.79086 44 4 44H40C42.2091 44 44 42.2091 44 40V4C44 1.79086 42.2091 0 40 0Z" fill="#002395"/>
<path d="M32.8613 15.7001C32.8613 15.7397 32.8613 15.7793 32.8613 15.8201C32.9336 15.8275 32.9336 15.8275 33.0075 15.8351C33.4523 15.9287 33.8515 16.1628 34.2563 16.3639C34.2974 16.3843 34.3385 16.4047 34.3809 16.4258C34.4594 16.4651 34.5375 16.5051 34.6153 16.5458C34.7081 16.5933 34.8031 16.6364 34.8984 16.6786C35.0213 16.7801 35.0213 16.7801 35.0569 16.9639C34.9988 19.4022 34.4868 21.939 33.1352 24.0099C33.0338 24.1589 33.0338 24.1589 32.9813 24.3401C32.9417 24.3401 32.9021 24.3401 32.8613 24.3401C32.8389 24.4198 32.8389 24.4198 32.816 24.5011C32.7374 24.7104 32.6495 24.8347 32.505 25.0039C32.4562 25.0613 32.4074 25.1188 32.3571 25.178C32.3057 25.2381 32.2542 25.2982 32.2013 25.3601C32.1529 25.4196 32.1046 25.4791 32.0548 25.5403C31.4265 26.3113 30.7228 27.0489 29.9213 27.6401C29.8398 27.704 29.8398 27.704 29.7567 27.7693C29.0377 28.3271 28.2614 28.7536 27.4446 29.1491C27.3108 29.2151 27.1802 29.2868 27.0488 29.3576C26.3757 29.6908 25.632 29.8753 24.9075 30.0589C24.8176 30.0818 24.8176 30.0818 24.7259 30.1051C24.3776 30.1908 24.0385 30.2504 23.6813 30.2801C23.6264 30.2852 23.5716 30.2904 23.5152 30.2957C21.7663 30.4573 20.1321 30.405 18.4238 29.9576C18.3203 29.9314 18.3203 29.9314 18.2147 29.9046C17.8428 29.8081 17.4889 29.6973 17.136 29.545C17.0232 29.4928 17.0232 29.4928 16.9013 29.5001C16.1882 30.848 15.5172 32.187 15.0413 33.6401C14.5012 33.4388 13.9938 33.1818 13.4813 32.9201C13.4417 32.9003 13.4021 32.8805 13.3613 32.8601C13.4145 32.5881 13.5517 32.3706 13.6859 32.131C13.7416 32.031 13.7964 31.9305 13.8485 31.8286C14.0283 31.4815 14.2551 31.1756 14.4882 30.8632C14.6587 30.6343 14.8217 30.4031 14.9775 30.1639C15.2252 29.7865 15.4961 29.4286 15.7685 29.0691C15.9101 28.8822 16.0483 28.6932 16.185 28.5026C16.8651 27.5645 17.6009 26.6801 18.4301 25.8704C18.6037 25.7005 18.7724 25.532 18.9263 25.3439C19.0373 25.2092 19.1418 25.1 19.275 24.9889C19.4277 24.8592 19.5774 24.7275 19.7238 24.5909C19.7556 24.5613 19.7874 24.5317 19.8201 24.5012C19.8831 24.4423 19.9459 24.3833 20.0085 24.324C20.1634 24.1798 20.3046 24.0611 20.5013 23.9801C20.5013 23.9405 20.5013 23.9009 20.5013 23.8601C20.6329 23.7552 20.7651 23.657 20.9025 23.5601C20.9851 23.5008 21.0677 23.4414 21.1502 23.382C21.1922 23.3518 21.2341 23.3217 21.2773 23.2906C21.5271 23.1083 21.7696 22.9165 22.013 22.7257C22.4224 22.4201 22.4224 22.4201 22.6013 22.4201C22.6013 22.3805 22.6013 22.3409 22.6013 22.3001C22.7 22.2271 22.7 22.2271 22.8384 22.1457C22.8889 22.1157 22.9394 22.0857 22.9914 22.0549C23.0458 22.0232 23.1002 21.9915 23.1563 21.9589C23.2112 21.9264 23.2661 21.894 23.3227 21.8606C23.4324 21.796 23.5421 21.7316 23.652 21.6674C23.7751 21.5954 23.8978 21.5229 24.0202 21.4498C24.3797 21.2365 24.745 21.0422 25.1213 20.8601C23.8062 21.2861 22.5704 21.7783 21.3757 22.4768C21.2027 22.5779 21.0266 22.672 20.8498 22.7663C20.4879 22.9631 20.1456 23.1843 19.8038 23.4139C19.7412 23.4558 19.6786 23.4976 19.6141 23.5408C19.1118 23.8799 18.6278 24.2378 18.1522 24.613C18.0116 24.7234 17.8694 24.8317 17.7272 24.94C17.1624 25.3708 16.6184 25.8178 16.0957 26.2988C15.9213 26.4584 15.7432 26.6132 15.5644 26.7678C15.4682 26.8539 15.3782 26.9433 15.2888 27.0364C15.1613 27.1601 15.1613 27.1601 15.0413 27.1601C15.1802 25.671 15.4752 24.3417 16.0613 22.9601C16.078 22.9198 16.0948 22.8795 16.1121 22.8379C16.3223 22.334 16.547 21.8615 16.8413 21.4001C16.8989 21.3014 16.9564 21.2027 17.0138 21.1039C17.698 19.9688 18.6492 18.8943 19.6613 18.0401C19.7139 17.9956 19.7666 17.9512 19.8209 17.9053C19.9613 17.8001 19.9613 17.8001 20.0813 17.8001C20.0813 17.7605 20.0813 17.7209 20.0813 17.6801C20.1596 17.625 20.2387 17.5708 20.3198 17.5198C20.469 17.4219 20.6098 17.3147 20.7525 17.2076C21.0248 17.0083 21.3018 16.8421 21.6007 16.6861C21.7567 16.6025 21.9044 16.5112 22.0538 16.4164C22.3972 16.2071 22.7649 16.0778 23.1413 15.9401C23.2106 15.9104 23.2799 15.8807 23.3513 15.8501C23.4206 15.8204 23.4899 15.7907 23.5613 15.7601C23.6313 15.728 23.6313 15.728 23.7028 15.6952C26.5153 14.498 30.0216 14.7337 32.8613 15.7001Z" fill="white"/>
<path d="M11.2376 10.4C11.3285 10.3993 11.3285 10.3993 11.4211 10.3985C11.6163 10.3973 11.8114 10.3973 12.0066 10.3977C12.1062 10.3977 12.1062 10.3977 12.2078 10.3978C13.1709 10.4 14.102 10.4216 15.0404 10.6602C15.0908 10.6727 15.1412 10.6852 15.1931 10.6982C15.548 10.7895 15.8944 10.8998 16.2404 11.0202C16.2988 11.0404 16.3572 11.0606 16.4174 11.0814C17.3713 11.4156 18.2369 11.8027 19.0831 12.3573C19.1913 12.4281 19.3006 12.4972 19.4108 12.5649C19.7272 12.7598 20.0106 12.9617 20.281 13.2172C20.3842 13.3136 20.3842 13.3136 20.5604 13.3602C20.6617 13.4588 20.7616 13.559 20.8604 13.6602C20.9439 13.7251 20.9439 13.7251 21.0291 13.7914C21.0724 13.8273 21.1157 13.8632 21.1604 13.9002C21.1604 13.9398 21.1604 13.9794 21.1604 14.0202C21.2 14.0202 21.2396 14.0202 21.2804 14.0202C21.2804 14.0598 21.2804 14.0994 21.2804 14.1402C21.3398 14.16 21.3992 14.1798 21.4604 14.2002C21.5508 14.2899 21.5508 14.2899 21.6479 14.4064C21.821 14.6107 21.9971 14.8114 22.1766 15.0102C22.2461 15.0872 22.2461 15.0872 22.317 15.1658C22.3682 15.2224 22.3682 15.2224 22.4204 15.2802C22.3604 15.4602 22.3604 15.4602 22.2308 15.5375C22.1733 15.564 22.1158 15.5904 22.0566 15.6177C21.2401 16.0114 20.4971 16.4648 19.7804 17.0202C19.7248 17.0629 19.6692 17.1057 19.6119 17.1498C19.0568 17.5853 18.5473 18.063 18.0578 18.5703C17.9741 18.6557 17.8875 18.7382 17.8004 18.8202C17.7608 18.8202 17.7212 18.8202 17.6804 18.8202C17.5997 18.7006 17.5198 18.5805 17.4404 18.4602C17.3419 18.3587 17.2416 18.259 17.1404 18.1602C17.0684 18.0877 16.9965 18.0151 16.9247 17.9424C16.8466 17.8638 16.7685 17.7851 16.6904 17.7064C16.6513 17.6669 16.6123 17.6273 16.572 17.5865C16.3702 17.3837 16.1682 17.1942 15.9404 17.0202C15.8764 16.9666 15.8127 16.9129 15.7491 16.8589C15.5957 16.7222 15.5957 16.7222 15.4604 16.6602C15.4604 16.6206 15.4604 16.581 15.4604 16.5402C15.3963 16.5179 15.3963 16.5179 15.331 16.4952C15.0801 16.3849 14.8803 16.2183 14.6635 16.0527C14.5114 15.9478 14.3741 15.8806 14.2004 15.8202C14.2388 15.8615 14.2773 15.9029 14.3169 15.9456C15.1186 16.8166 15.1186 16.8166 15.3404 17.2602C15.4143 17.3722 15.4894 17.4833 15.5654 17.5939C15.7604 17.8837 15.9355 18.1771 16.0983 18.4859C16.1497 18.5824 16.2028 18.678 16.2587 18.7719C16.478 19.1412 16.815 19.7177 16.7647 20.1575C16.7204 20.2602 16.7204 20.2602 16.6191 20.3839C16.4416 20.6094 16.315 20.8503 16.1818 21.104C16.109 21.2417 16.0349 21.3788 15.961 21.5159C15.6562 22.0845 15.3595 22.6448 15.1604 23.2602C15.1421 23.316 15.1237 23.3717 15.1049 23.4292C14.8515 24.2067 14.6247 24.9714 14.5004 25.7802C14.477 25.9102 14.4533 26.0402 14.4291 26.1702C14.4128 26.2602 14.3966 26.3502 14.3804 26.4402C13.937 26.4402 13.5336 25.9147 13.225 25.6244C13.0663 25.4751 12.9067 25.3316 12.7365 25.1954C12.685 25.1508 12.6334 25.1061 12.5804 25.0602C12.5804 25.0206 12.5804 24.981 12.5804 24.9402C12.5408 24.9402 12.5012 24.9402 12.4604 24.9402C12.3647 24.8342 12.3647 24.8342 12.2504 24.6852C12.068 24.45 11.8794 24.2235 11.6841 23.9989C11.3785 23.6334 11.1385 23.2445 10.9038 22.8309C10.8444 22.7272 10.7828 22.6249 10.7211 22.5226C10.4663 22.0953 10.2491 21.657 10.0416 21.2052C10.0038 21.1232 10.0038 21.1232 9.96511 21.0396C9.80588 20.6861 9.68507 20.3331 9.58037 19.9602C9.54046 19.8351 9.50047 19.7101 9.46037 19.5852C9.3346 19.1739 9.23908 18.7629 9.16037 18.3402C9.15208 18.2998 9.14378 18.2594 9.13524 18.2179C8.97992 17.4477 8.96269 16.6816 8.96162 15.8989C8.96141 15.8497 8.9612 15.8005 8.96099 15.7498C8.95862 14.7473 9.04061 13.7853 9.29537 12.8127C9.3138 12.7408 9.33224 12.6688 9.35123 12.5948C9.4934 12.0533 9.66055 11.535 9.88037 11.0202C9.89979 10.9674 9.9192 10.9147 9.9392 10.8603C9.99287 10.7277 9.99287 10.7277 10.1204 10.5402C10.493 10.414 10.8468 10.401 11.2376 10.4Z" fill="white"/>
<path d="M19.5988 18.0996C19.5988 18.2796 19.5987 18.2796 19.4799 18.4097C19.4196 18.4664 19.3592 18.523 19.2987 18.5796C19.2187 18.6591 19.1391 18.7389 19.0595 18.8189C18.8193 19.0591 18.5791 19.2994 18.3388 19.5396C18.2992 19.5198 18.2596 19.5 18.2188 19.4796C18.3583 19.328 18.4986 19.1769 18.6388 19.0259C18.6777 18.9836 18.7166 18.9413 18.7567 18.8978C19.0224 18.6123 19.3003 18.3505 19.5988 18.0996Z" fill="white"/>
<path d="M19.2996 25C19.2996 25.18 19.2996 25.18 19.2005 25.2996C19.1326 25.366 19.1326 25.366 19.0634 25.4338C19.0146 25.482 18.9659 25.5301 18.9157 25.5797C18.8642 25.6297 18.8127 25.6797 18.7596 25.7312C18.6823 25.8073 18.6823 25.8073 18.6035 25.8849C18.4759 26.0103 18.348 26.1353 18.2196 26.26C18.18 26.2402 18.1404 26.2204 18.0996 26.2C18.1438 26.1565 18.1879 26.1131 18.2334 26.0683C18.599 25.7124 18.599 25.7124 18.9359 25.33C19.0484 25.1936 19.1532 25.0976 19.2996 25Z" fill="white"/>
<path d="M20.2613 24.0996C20.2613 24.2796 20.2613 24.2796 20.1516 24.409C20.1036 24.4554 20.0557 24.5018 20.0063 24.5496C19.9353 24.6192 19.9353 24.6192 19.8628 24.6902C19.7401 24.8024 19.6163 24.903 19.4813 24.9996C19.4417 24.9798 19.4021 24.96 19.3613 24.9396C19.6583 24.6624 19.9553 24.3852 20.2613 24.0996Z" fill="white"/>
</g>
<defs>
<clipPath id="clip0_239_39">
<rect width="44" height="44" fill="white"/>
</clipPath>
</defs>
</svg>
