<svg width="131" height="26" viewBox="0 0 131 26" fill="none" xmlns="http://www.w3.org/2000/svg">
<path d="M3.50614 9.7502C3.53267 9.7502 3.55921 9.7502 3.58655 9.7502C3.63231 9.7501 3.63231 9.7501 3.67898 9.75C3.72986 9.7501 3.72986 9.7501 3.78176 9.7503C3.81747 9.7503 3.85319 9.7502 3.88998 9.7502C3.98956 9.7502 4.08913 9.7503 4.18871 9.7504C4.29592 9.7506 4.40313 9.7505 4.51034 9.7505C4.69624 9.7505 4.88214 9.7506 5.06804 9.7508C5.33682 9.751 5.6056 9.7511 5.87439 9.7512C6.31042 9.7512 6.74646 9.7515 7.18249 9.7518C7.60617 9.7521 8.02985 9.7523 8.45352 9.7524C8.47962 9.7525 8.50572 9.7525 8.5326 9.7525C8.66352 9.7525 8.79443 9.7526 8.92534 9.7526C10.0121 9.7529 11.0989 9.7535 12.1857 9.7543C12.1857 9.9119 12.1333 10.0025 12.0639 10.1353C11.7206 10.8167 11.4692 11.5626 11.3331 12.3249C11.3276 12.3543 11.322 12.3837 11.3163 12.414C11.1344 13.4075 11.1463 14.4647 11.3331 15.4559C11.3378 15.4823 11.3425 15.5087 11.3474 15.536C11.5689 16.7599 12.1029 17.9181 12.8252 18.8835C12.8379 18.9006 12.8506 18.9178 12.8637 18.9354C13.1847 19.3668 13.5438 19.7676 13.9519 20.1029C13.977 20.1238 13.977 20.1238 14.0027 20.1451C14.4365 20.5033 14.8888 20.8083 15.3831 21.0587C15.4048 21.0698 15.4266 21.081 15.449 21.0924C16.4133 21.5829 17.4478 21.8239 18.5119 21.825C18.5354 21.825 18.5588 21.825 18.583 21.8251C18.9841 21.8247 19.3728 21.7956 19.768 21.7178C19.7924 21.7133 19.8168 21.7087 19.842 21.7039C20.8172 21.5171 21.7836 21.1097 22.5999 20.4984C22.6493 20.4621 22.6493 20.4621 22.6996 20.425C22.9658 20.2262 23.2112 20.0061 23.4526 19.7733C23.4693 19.7573 23.4861 19.7413 23.5033 19.7247C23.6923 19.5432 23.8692 19.3576 24.0311 19.1472C24.055 19.1184 24.0789 19.0896 24.1035 19.06C24.4 18.6994 24.6558 18.2949 24.8717 17.8726C24.8854 17.8459 24.8991 17.8192 24.9132 17.7917C24.9236 17.7713 24.9339 17.751 24.9447 17.73C24.9213 17.73 24.898 17.73 24.8739 17.7301C24.3064 17.7308 23.739 17.7313 23.1715 17.7317C22.8971 17.7319 22.6227 17.7321 22.3483 17.7325C22.1092 17.7328 21.8701 17.733 21.631 17.7331C21.5043 17.7331 21.3776 17.7332 21.251 17.7335C21.1319 17.7337 21.0128 17.7338 20.8937 17.7337C20.8498 17.7337 20.806 17.7338 20.7622 17.7339C20.7026 17.7341 20.643 17.734 20.5834 17.7339C20.55 17.734 20.5165 17.734 20.4821 17.734C20.4075 17.73 20.4075 17.73 20.377 17.697C20.374 17.6471 20.3732 17.597 20.3732 17.5469C20.3731 17.5144 20.373 17.482 20.3729 17.4486C20.373 17.4127 20.373 17.3768 20.3731 17.3398C20.373 17.3023 20.373 17.2647 20.3729 17.226C20.3728 17.1012 20.3729 16.9763 20.373 16.8515C20.373 16.7651 20.3729 16.6788 20.3729 16.5925C20.3728 16.4113 20.3729 16.2301 20.3731 16.0489C20.3732 15.8391 20.3732 15.6293 20.373 15.4196C20.3728 15.2181 20.3729 15.0167 20.373 14.8153C20.373 14.7294 20.3729 14.6435 20.3729 14.5576C20.3728 14.4378 20.3729 14.318 20.3731 14.1982C20.373 14.1623 20.373 14.1264 20.3729 14.0894C20.373 14.057 20.3731 14.0245 20.3732 13.9911C20.3732 13.9628 20.3732 13.9344 20.3732 13.9052C20.377 13.841 20.377 13.841 20.4075 13.808C20.4557 13.8048 20.5041 13.8039 20.5524 13.8039C20.5839 13.8038 20.6155 13.8037 20.648 13.8036C20.6831 13.8037 20.7181 13.8038 20.7543 13.8038C20.7912 13.8038 20.8281 13.8037 20.8662 13.8037C20.9692 13.8036 21.0722 13.8036 21.1752 13.8037C21.2861 13.8038 21.3969 13.8037 21.5078 13.8036C21.7252 13.8034 21.9426 13.8035 22.1601 13.8036C22.3367 13.8036 22.5133 13.8037 22.6899 13.8036C22.715 13.8036 22.7401 13.8036 22.7659 13.8036C22.8169 13.8036 22.8678 13.8036 22.9188 13.8036C23.3972 13.8035 23.8756 13.8036 24.354 13.8038C24.7649 13.8039 25.1758 13.8039 25.5868 13.8037C26.0634 13.8036 26.54 13.8035 27.0167 13.8036C27.0674 13.8036 27.1182 13.8036 27.169 13.8036C27.2065 13.8036 27.2065 13.8036 27.2447 13.8036C27.4212 13.8037 27.5977 13.8036 27.7742 13.8035C27.9892 13.8034 28.2041 13.8035 28.4191 13.8036C28.5288 13.8037 28.6386 13.8038 28.7484 13.8037C28.8671 13.8035 28.9859 13.8037 29.1046 13.8038C29.1397 13.8038 29.1748 13.8037 29.2109 13.8036C29.2424 13.8037 29.274 13.8038 29.3065 13.8039C29.3339 13.8039 29.3614 13.8039 29.3897 13.8039C29.4514 13.808 29.4514 13.808 29.4818 13.841C29.4908 13.989 29.4893 14.1376 29.4895 14.2859C29.4895 14.3194 29.4895 14.3194 29.4895 14.3535C29.4889 14.7924 29.4544 15.2202 29.3905 15.6537C29.3827 15.7072 29.3827 15.7072 29.3747 15.7619C29.1161 17.4815 28.5281 19.1712 27.5939 20.5973C27.5734 20.6287 27.5529 20.6602 27.5318 20.6926C27.4722 20.7825 27.4116 20.8713 27.3503 20.9598C27.3272 20.9933 27.3041 21.0267 27.2803 21.0611C26.7455 21.8288 26.1307 22.54 25.4319 23.135C25.3915 23.1702 25.3511 23.2054 25.3108 23.2406C23.7906 24.5556 21.9358 25.38 20.0135 25.6686C19.9908 25.672 19.9681 25.6755 19.9447 25.679C19.4817 25.7475 19.0213 25.7786 18.5538 25.7778C18.5321 25.7778 18.5104 25.7778 18.488 25.7777C18.0801 25.7767 17.6765 25.7561 17.271 25.7057C17.2393 25.7018 17.2076 25.6979 17.1749 25.6939C16.2027 25.5687 15.2492 25.2945 14.3477 24.8818C14.3283 24.8729 14.3089 24.8641 14.289 24.855C13.9773 24.7127 13.6731 24.5569 13.3733 24.3874C13.3525 24.3757 13.3318 24.3641 13.3104 24.3521C13.0108 24.1826 12.7262 23.9924 12.4446 23.79C12.4144 23.7684 12.3842 23.7468 12.3531 23.7245C12.1816 23.5995 12.0176 23.4682 11.8575 23.3265C11.7903 23.2673 11.7219 23.2102 11.6528 23.1536C11.5271 23.0482 11.4093 22.9351 11.2921 22.8188C11.2282 22.7562 11.1636 22.6951 11.0983 22.6343C10.9514 22.4956 10.814 22.3473 10.6765 22.1978C10.6518 22.1712 10.6271 22.1446 10.6016 22.1171C10.4534 21.9565 10.3114 21.7923 10.176 21.619C10.1602 21.5989 10.1445 21.5788 10.1283 21.558C9.74095 21.0584 9.40355 20.5281 9.08788 19.973C9.05579 19.9166 9.02332 19.8605 8.99076 19.8044C8.66037 19.2178 8.41862 18.5693 8.19666 17.9277C8.18036 17.8808 8.18036 17.8808 8.16373 17.833C7.75741 16.6447 7.54656 15.3414 7.55529 14.0758C7.55542 14.037 7.55556 13.9982 7.5557 13.9583C7.55606 13.8642 7.55655 13.7702 7.55719 13.6762C7.51908 13.6772 7.51908 13.6772 7.4802 13.6783C6.30734 13.7059 5.34424 13.4504 4.46238 12.5676C3.8385 11.8935 3.4198 10.9354 3.41016 9.9767C3.41137 9.7566 3.41137 9.7566 3.50614 9.7502Z" fill="#002395"/>
<path d="M0.159878 2.00433C0.18685 2.00424 0.213821 2.00415 0.24161 2.00406C0.286658 2.00416 0.286658 2.00416 0.332616 2.00426C0.364341 2.0042 0.396066 2.00415 0.428752 2.00409C0.536498 2.00393 0.644242 2.00401 0.751987 2.00409C0.829449 2.00403 0.906911 2.00396 0.984373 2.00387C1.15355 2.00371 1.32272 2.00365 1.4919 2.00369C1.7435 2.00374 1.99511 2.0036 2.24671 2.00343C2.72236 2.00311 3.19802 2.00301 3.67367 2.003C4.04131 2.00298 4.40895 2.00291 4.77658 2.00281C4.88233 2.00278 4.98809 2.00275 5.09384 2.00272C5.12013 2.00271 5.14642 2.0027 5.17351 2.0027C5.91364 2.00249 6.65378 2.00236 7.39392 2.00238C7.42185 2.00238 7.44978 2.00238 7.47856 2.00238C7.62015 2.00238 7.76173 2.00239 7.90331 2.00239C7.93143 2.00239 7.95955 2.00239 7.98852 2.00239C8.04538 2.00239 8.10225 2.00239 8.15911 2.0024C9.04224 2.00242 9.92536 2.00217 10.8085 2.00172C11.8007 2.00121 12.7929 2.00093 13.7851 2.00096C13.8911 2.00096 13.9971 2.00096 14.1031 2.00096C14.1292 2.00096 14.1553 2.00096 14.1822 2.00097C14.601 2.00097 15.0198 2.00076 15.4386 2.00047C15.8604 2.00019 16.2822 2.00016 16.704 2.00038C16.9541 2.0005 17.2042 2.00044 17.4542 2.00011C17.6418 1.99989 17.8294 2.00002 18.017 2.00028C18.0922 2.00033 18.1675 2.00027 18.2428 2.00008C18.9108 1.99855 19.5754 2.03476 20.2361 2.14651C20.2568 2.14996 20.2775 2.15342 20.2988 2.15697C21.3911 2.3411 22.4576 2.71658 23.4392 3.2681C23.5317 3.31997 23.625 3.36884 23.719 3.41744C24.5085 3.84646 25.2091 4.43046 25.8695 5.05967C25.9133 5.10109 25.9576 5.14189 26.0019 5.1826C26.0242 5.20303 26.0464 5.22347 26.0694 5.24452C26.0971 5.26969 26.0971 5.26969 26.1254 5.29537C26.1626 5.33721 26.1626 5.33721 26.1626 5.40313C26.19 5.41638 26.19 5.41638 26.2178 5.42991C26.2844 5.46902 26.3275 5.50516 26.3758 5.56792C26.3758 5.58967 26.3758 5.61142 26.3758 5.63383C26.394 5.64254 26.4123 5.65125 26.4311 5.66022C26.501 5.70176 26.5363 5.73887 26.587 5.8048C26.6583 5.8962 26.7298 5.98718 26.8029 6.07683C27.4357 6.85435 27.9715 7.73058 28.3863 8.6649C28.4168 8.7337 28.4478 8.8023 28.4788 8.8709C28.5835 9.1046 28.6814 9.3403 28.7681 9.5826C28.7801 9.6154 28.7801 9.6154 28.7924 9.6489C28.8327 9.7654 28.8458 9.8332 28.8119 9.9513C28.3111 9.9675 27.8103 9.9797 27.3094 9.9871C27.0767 9.9907 26.8442 9.9955 26.6116 10.0035C26.4087 10.0104 26.2059 10.0149 26.0029 10.0164C25.8955 10.0173 25.7884 10.0194 25.6811 10.0244C25.0314 10.054 25.0314 10.054 24.8376 9.8841C24.7045 9.7206 24.6136 9.5393 24.5277 9.3434C24.4688 9.219 24.3927 9.1133 24.3108 9.0058C24.2974 8.9877 24.2839 8.9696 24.2701 8.9509C24.1003 8.7239 23.92 8.507 23.7266 8.3034C23.5743 8.1386 23.5743 8.1386 23.5291 8.0874C22.3916 6.81521 20.5656 6.00894 18.9407 5.96148C18.7496 5.95826 18.5585 5.95874 18.3674 5.95886C18.3024 5.95878 18.2374 5.95868 18.1724 5.95858C17.9943 5.95832 17.8163 5.95827 17.6383 5.95824C17.4461 5.95818 17.2538 5.95793 17.0616 5.9577C16.7502 5.95735 16.4388 5.95708 16.1275 5.95688C15.6016 5.95655 15.0758 5.95592 14.55 5.95518C14.3474 5.9549 14.1448 5.95463 13.9422 5.95436C13.9197 5.95432 13.8972 5.95429 13.8741 5.95426C13.3388 5.95354 12.8036 5.95289 12.2683 5.95227C12.2449 5.95224 12.2215 5.95222 12.1974 5.95219C11.6514 5.95156 11.1054 5.951 10.5594 5.9506C10.5242 5.95057 10.5242 5.95057 10.4882 5.95054C10.299 5.9504 10.1097 5.95026 9.92045 5.95013C9.13932 5.94956 8.35818 5.94866 7.57705 5.94739C7.46663 5.94721 7.35622 5.94703 7.2458 5.94686C7.22407 5.94682 7.20234 5.94679 7.17995 5.94675C6.83102 5.94622 6.48208 5.94603 6.13315 5.94599C5.78217 5.94594 5.43121 5.94553 5.08024 5.94478C4.89028 5.94438 4.70033 5.94415 4.51038 5.94434C4.33623 5.94452 4.16209 5.94423 3.98795 5.9436C3.9252 5.94345 3.86246 5.94346 3.79972 5.94366C2.74909 5.94672 1.83296 5.60548 1.07109 4.80989C1.03817 4.77739 1.03817 4.77739 1.00459 4.74424C0.677571 4.41237 0.462178 3.99482 0.279363 3.55751C0.264643 3.52348 0.249923 3.48945 0.234757 3.45438C0.145724 3.22974 0.098238 3.00163 0.0566906 2.76241C0.0514601 2.73253 0.0462297 2.70266 0.0408407 2.67188C0.00727129 2.46227 -0.00924033 2.25421 0.0053047 2.04146C0.0521033 1.99081 0.0946333 2.00436 0.159878 2.00433Z" fill="#002395"/>
<path d="M34.971 12.108C35.313 11.5507 35.7563 11.1137 36.301 10.797C36.8583 10.4803 37.4917 10.322 38.201 10.322V13.115H37.498C36.662 13.115 36.0287 13.3113 35.598 13.704C35.18 14.0967 34.971 14.7807 34.971 15.756V21H32.311V10.474H34.971V12.108ZM39.4036 15.699C39.4036 14.635 39.6126 13.6913 40.0306 12.868C40.4613 12.0447 41.0376 11.4113 41.7596 10.968C42.4943 10.5247 43.3113 10.303 44.2106 10.303C44.9959 10.303 45.6799 10.4613 46.2626 10.778C46.8579 11.0947 47.3329 11.4937 47.6876 11.975V10.474H50.3666V21H47.6876V19.461C47.3456 19.955 46.8706 20.3667 46.2626 20.696C45.6673 21.0127 44.9769 21.171 44.1916 21.171C43.3049 21.171 42.4943 20.943 41.7596 20.487C41.0376 20.031 40.4613 19.3913 40.0306 18.568C39.6126 17.732 39.4036 16.7757 39.4036 15.699ZM47.6876 15.737C47.6876 15.091 47.5609 14.54 47.3076 14.084C47.0543 13.6153 46.7123 13.2607 46.2816 13.02C45.8509 12.7667 45.3886 12.64 44.8946 12.64C44.4006 12.64 43.9446 12.7603 43.5266 13.001C43.1086 13.2417 42.7666 13.5963 42.5006 14.065C42.2473 14.521 42.1206 15.0657 42.1206 15.699C42.1206 16.3323 42.2473 16.8897 42.5006 17.371C42.7666 17.8397 43.1086 18.2007 43.5266 18.454C43.9573 18.7073 44.4133 18.834 44.8946 18.834C45.3886 18.834 45.8509 18.7137 46.2816 18.473C46.7123 18.2197 47.0543 17.865 47.3076 17.409C47.5609 16.9403 47.6876 16.383 47.6876 15.737ZM55.7195 12.013C56.0615 11.5063 56.5302 11.0947 57.1255 10.778C57.7335 10.4613 58.4238 10.303 59.1965 10.303C60.0958 10.303 60.9065 10.5247 61.6285 10.968C62.3632 11.4113 62.9395 12.0447 63.3575 12.868C63.7882 13.6787 64.0035 14.6223 64.0035 15.699C64.0035 16.7757 63.7882 17.732 63.3575 18.568C62.9395 19.3913 62.3632 20.031 61.6285 20.487C60.9065 20.943 60.0958 21.171 59.1965 21.171C58.4112 21.171 57.7208 21.019 57.1255 20.715C56.5428 20.3983 56.0742 19.993 55.7195 19.499V21H53.0595V6.94H55.7195V12.013ZM61.2865 15.699C61.2865 15.0657 61.1535 14.521 60.8875 14.065C60.6342 13.5963 60.2922 13.2417 59.8615 13.001C59.4435 12.7603 58.9875 12.64 58.4935 12.64C58.0122 12.64 57.5562 12.7667 57.1255 13.02C56.7075 13.2607 56.3655 13.6153 56.0995 14.084C55.8462 14.5527 55.7195 15.1037 55.7195 15.737C55.7195 16.3703 55.8462 16.9213 56.0995 17.39C56.3655 17.8587 56.7075 18.2197 57.1255 18.473C57.5562 18.7137 58.0122 18.834 58.4935 18.834C58.9875 18.834 59.4435 18.7073 59.8615 18.454C60.2922 18.2007 60.6342 17.8397 60.8875 17.371C61.1535 16.9023 61.2865 16.345 61.2865 15.699ZM73.5554 14.198C74.3027 14.3373 74.9171 14.711 75.3984 15.319C75.8797 15.927 76.1204 16.6237 76.1204 17.409C76.1204 18.1183 75.9431 18.7453 75.5884 19.29C75.2464 19.822 74.7461 20.24 74.0874 20.544C73.4287 20.848 72.6497 21 71.7504 21H66.0314V7.738H71.5034C72.4027 7.738 73.1754 7.88367 73.8214 8.175C74.4801 8.46633 74.9741 8.87167 75.3034 9.391C75.6454 9.91033 75.8164 10.4993 75.8164 11.158C75.8164 11.9307 75.6074 12.5767 75.1894 13.096C74.7841 13.6153 74.2394 13.9827 73.5554 14.198ZM68.6914 13.21H71.1234C71.7567 13.21 72.2444 13.0707 72.5864 12.792C72.9284 12.5007 73.0994 12.089 73.0994 11.557C73.0994 11.025 72.9284 10.6133 72.5864 10.322C72.2444 10.0307 71.7567 9.885 71.1234 9.885H68.6914V13.21ZM71.3704 18.834C72.0164 18.834 72.5167 18.682 72.8714 18.378C73.2387 18.074 73.4224 17.6433 73.4224 17.086C73.4224 16.516 73.2324 16.0727 72.8524 15.756C72.4724 15.4267 71.9594 15.262 71.3134 15.262H68.6914V18.834H71.3704ZM77.6513 15.699C77.6513 14.635 77.8603 13.6913 78.2783 12.868C78.709 12.0447 79.2853 11.4113 80.0073 10.968C80.742 10.5247 81.559 10.303 82.4583 10.303C83.2437 10.303 83.9277 10.4613 84.5103 10.778C85.1057 11.0947 85.5807 11.4937 85.9353 11.975V10.474H88.6143V21H85.9353V19.461C85.5933 19.955 85.1183 20.3667 84.5103 20.696C83.915 21.0127 83.2247 21.171 82.4393 21.171C81.5527 21.171 80.742 20.943 80.0073 20.487C79.2853 20.031 78.709 19.3913 78.2783 18.568C77.8603 17.732 77.6513 16.7757 77.6513 15.699ZM85.9353 15.737C85.9353 15.091 85.8087 14.54 85.5553 14.084C85.302 13.6153 84.96 13.2607 84.5293 13.02C84.0987 12.7667 83.6363 12.64 83.1423 12.64C82.6483 12.64 82.1923 12.7603 81.7743 13.001C81.3563 13.2417 81.0143 13.5963 80.7483 14.065C80.495 14.521 80.3683 15.0657 80.3683 15.699C80.3683 16.3323 80.495 16.8897 80.7483 17.371C81.0143 17.8397 81.3563 18.2007 81.7743 18.454C82.205 18.7073 82.661 18.834 83.1423 18.834C83.6363 18.834 84.0987 18.7137 84.5293 18.473C84.96 18.2197 85.302 17.865 85.5553 17.409C85.8087 16.9403 85.9353 16.383 85.9353 15.737ZM95.3353 21.171C94.4739 21.171 93.7013 21.019 93.0173 20.715C92.3333 20.3983 91.7886 19.974 91.3833 19.442C90.9906 18.91 90.7753 18.321 90.7373 17.675H93.4163C93.4669 18.0803 93.6633 18.416 94.0053 18.682C94.3599 18.948 94.7969 19.081 95.3163 19.081C95.8229 19.081 96.2156 18.9797 96.4943 18.777C96.7856 18.5743 96.9313 18.3147 96.9313 17.998C96.9313 17.656 96.7539 17.4027 96.3993 17.238C96.0573 17.0607 95.5063 16.8707 94.7463 16.668C93.9609 16.478 93.3149 16.2817 92.8083 16.079C92.3143 15.8763 91.8836 15.566 91.5163 15.148C91.1616 14.73 90.9843 14.1663 90.9843 13.457C90.9843 12.8743 91.1489 12.3423 91.4783 11.861C91.8203 11.3797 92.3016 10.9997 92.9223 10.721C93.5556 10.4423 94.2966 10.303 95.1453 10.303C96.3993 10.303 97.3999 10.6197 98.1473 11.253C98.8946 11.8737 99.3063 12.716 99.3823 13.78H96.8363C96.7983 13.362 96.6209 13.0327 96.3043 12.792C96.0003 12.5387 95.5886 12.412 95.0693 12.412C94.5879 12.412 94.2143 12.5007 93.9483 12.678C93.6949 12.8553 93.5683 13.1023 93.5683 13.419C93.5683 13.7737 93.7456 14.046 94.1003 14.236C94.4549 14.4133 95.0059 14.597 95.7533 14.787C96.5133 14.977 97.1403 15.1733 97.6343 15.376C98.1283 15.5787 98.5526 15.8953 98.9073 16.326C99.2746 16.744 99.4646 17.3013 99.4773 17.998C99.4773 18.606 99.3063 19.1507 98.9643 19.632C98.6349 20.1133 98.1536 20.4933 97.5203 20.772C96.8996 21.038 96.1713 21.171 95.3353 21.171ZM107.988 21L104.416 16.516V21H101.756V6.94H104.416V14.939L107.95 10.474H111.408L106.772 15.756L111.446 21H107.988ZM122.731 15.509C122.731 15.889 122.706 16.231 122.655 16.535H114.96C115.024 17.295 115.29 17.8903 115.758 18.321C116.227 18.7517 116.803 18.967 117.487 18.967C118.475 18.967 119.178 18.5427 119.596 17.694H122.465C122.161 18.7073 121.579 19.5433 120.717 20.202C119.856 20.848 118.798 21.171 117.544 21.171C116.531 21.171 115.619 20.9493 114.808 20.506C114.01 20.05 113.383 19.4103 112.927 18.587C112.484 17.7637 112.262 16.8137 112.262 15.737C112.262 14.6477 112.484 13.6913 112.927 12.868C113.371 12.0447 113.991 11.4113 114.789 10.968C115.587 10.5247 116.506 10.303 117.544 10.303C118.545 10.303 119.438 10.5183 120.223 10.949C121.021 11.3797 121.636 11.994 122.066 12.792C122.51 13.5773 122.731 14.483 122.731 15.509ZM119.976 14.749C119.964 14.065 119.717 13.5203 119.235 13.115C118.754 12.697 118.165 12.488 117.468 12.488C116.81 12.488 116.252 12.6907 115.796 13.096C115.353 13.4887 115.081 14.0397 114.979 14.749H119.976ZM127.865 12.659V17.751C127.865 18.1057 127.947 18.3653 128.112 18.53C128.289 18.682 128.581 18.758 128.986 18.758H130.221V21H128.549C126.307 21 125.186 19.9107 125.186 17.732V12.659H123.932V10.474H125.186V7.871H127.865V10.474H130.221V12.659H127.865Z" fill="black"/>
</svg>
