<svg width="21" height="15" viewBox="0 0 21 15" fill="none" xmlns="http://www.w3.org/2000/svg">
<g clip-path="url(#clip0_228_2160)">
<path d="M20.25 0H0.75C0.335786 0 0 0.335786 0 0.75C0 1.16421 0.335786 1.5 0.75 1.5H20.25C20.6642 1.5 21 1.16421 21 0.75C21 0.335786 20.6642 0 20.25 0Z" fill="#426287"/>
<path d="M20.25 6H8.75C8.33579 6 8 6.33579 8 6.75C8 7.16421 8.33579 7.5 8.75 7.5H20.25C20.6642 7.5 21 7.16421 21 6.75C21 6.33579 20.6642 6 20.25 6Z" fill="#426287"/>
<path d="M20.25 13H6.75C6.33579 13 6 13.3358 6 13.75C6 14.1642 6.33579 14.5 6.75 14.5H20.25C20.6642 14.5 21 14.1642 21 13.75C21 13.3358 20.6642 13 20.25 13Z" fill="#426287"/>
</g>
<defs>
<clipPath id="clip0_228_2160">
<rect width="21" height="15" fill="white"/>
</clipPath>
</defs>
</svg>
